<svg xmlns="http://www.w3.org/2000/svg" viewBox="0 0 200 200" width="200" height="200">
  <defs>
    <linearGradient id="bgGradient" x1="0%" y1="0%" x2="100%" y2="100%">
      <stop offset="0%" style="stop-color:#1a1a2e;stop-opacity:1" />
      <stop offset="100%" style="stop-color:#16213e;stop-opacity:1" />
    </linearGradient>
    <linearGradient id="logGradient" x1="0%" y1="0%" x2="0%" y2="100%">
      <stop offset="0%" style="stop-color:#00d9ff;stop-opacity:1" />
      <stop offset="100%" style="stop-color:#0099cc;stop-opacity:1" />
    </linearGradient>
  </defs>

  <!-- Background circle -->
  <circle cx="100" cy="100" r="95" fill="url(#bgGradient)" />

  <!-- Terminal window -->
  <rect x="45" y="45" width="110" height="110" rx="8" fill="#0d1117" stroke="#30363d" stroke-width="2" />

  <!-- Terminal header dots -->
  <circle cx="60" cy="60" r="4" fill="#ff5f56" />
  <circle cx="75" cy="60" r="4" fill="#ffbd2e" />
  <circle cx="90" cy="60" r="4" fill="#27ca40" />

  <!-- Log lines -->
  <g fill="url(#logGradient)">
    <rect x="55" y="80" width="90" height="3" rx="1.5" opacity="0.9" />
    <rect x="55" y="90" width="75" height="3" rx="1.5" opacity="0.8" />
    <rect x="55" y="100" width="80" height="3" rx="1.5" opacity="0.7" />
    <rect x="55" y="110" width="60" height="3" rx="1.5" opacity="0.6" />
    <rect x="55" y="120" width="85" height="3" rx="1.5" opacity="0.5" />
  </g>

  <!-- Cursor -->
  <rect x="55" y="130" width="10" height="3" rx="1.5" fill="#00d9ff">
    <animate attributeName="opacity" values="1;0;1" dur="1s" repeatCount="indefinite" />
  </rect>

  <!-- Capture/record indicator -->
  <circle cx="155" cy="155" r="20" fill="#0d1117" stroke="#00d9ff" stroke-width="2" />
  <circle cx="155" cy="155" r="8" fill="#ff5f56">
    <animate attributeName="opacity" values="1;0.5;1" dur="1.5s" repeatCount="indefinite" />
  </circle>
</svg>
